<svg aria-hidden="true" style="position: absolute; width: 0; height: 0; overflow: hidden;" version="1.1" xmlns="http://www.w3.org/2000/svg" xmlns:xlink="http://www.w3.org/1999/xlink">
    <defs>
        <symbol id="logo" viewBox="0 0 285 32">
            <path fill="#111" style="fill: var(--color1, #111)" d="M6.744 24.288c-0.912 0-1.8-0.088-2.664-0.264-0.848-0.16-1.624-0.384-2.328-0.672-0.688-0.288-1.272-0.6-1.752-0.936l1.584-3c0.528 0.368 1.088 0.688 1.68 0.96 0.608 0.256 1.24 0.456 1.896 0.6 0.656 0.128 1.312 0.192 1.968 0.192 0.72 0 1.336-0.080 1.848-0.24 0.528-0.16 0.928-0.384 1.2-0.672 0.288-0.288 0.432-0.64 0.432-1.056 0-0.384-0.152-0.696-0.456-0.936s-0.704-0.44-1.2-0.6c-0.48-0.176-1.016-0.344-1.608-0.504s-1.192-0.344-1.8-0.552c-0.592-0.224-1.136-0.496-1.632-0.816-0.48-0.336-0.872-0.76-1.176-1.272s-0.456-1.152-0.456-1.92c0-1.152 0.312-2.152 0.936-3 0.64-0.848 1.536-1.504 2.688-1.968 1.152-0.48 2.504-0.72 4.056-0.72 1.136 0 2.208 0.128 3.216 0.384 1.008 0.24 1.872 0.592 2.592 1.056l-1.464 2.976c-0.64-0.432-1.352-0.752-2.136-0.96-0.784-0.224-1.592-0.336-2.424-0.336-0.752 0-1.4 0.088-1.944 0.264-0.528 0.176-0.936 0.424-1.224 0.744-0.272 0.304-0.408 0.656-0.408 1.056s0.144 0.728 0.432 0.984c0.304 0.24 0.704 0.448 1.2 0.624 0.496 0.16 1.040 0.32 1.632 0.48s1.184 0.344 1.776 0.552c0.592 0.208 1.136 0.472 1.632 0.792s0.896 0.728 1.2 1.224c0.304 0.48 0.456 1.088 0.456 1.824 0 1.152-0.32 2.16-0.96 3.024-0.64 0.848-1.544 1.512-2.712 1.992-1.152 0.464-2.512 0.696-4.080 0.696zM15.473 24l3.36-16.8h3.912l-3.36 16.8h-3.912zM22.628 24l3.36-16.8h3.168l4.776 11.904-1.68-0.024 9.312-11.88h3.336l-3.336 16.8h-3.648l2.232-11.256h0.744l-7.416 9.48h-1.728l-3.96-9.504 0.72 0.072-2.232 11.208h-3.648zM44.83 24l3.36-16.8h6.792c2.096 0 3.712 0.464 4.848 1.392 1.152 0.912 1.728 2.192 1.728 3.84 0 1.408-0.328 2.64-0.984 3.696-0.656 1.040-1.6 1.84-2.832 2.4-1.216 0.56-2.664 0.84-4.344 0.84h-5.448l2.064-1.776-1.272 6.408h-3.912zM49.918 18.048l-1.368-1.848h5.016c1.28 0 2.272-0.288 2.976-0.864 0.72-0.592 1.080-1.448 1.080-2.568 0-0.816-0.272-1.416-0.816-1.8-0.544-0.4-1.312-0.6-2.304-0.6h-4.728l2.064-1.896-1.92 9.576zM61.453 24l3.36-16.8h3.912l-2.736 13.632h8.424l-0.648 3.168h-12.312zM77.659 24l1.368-6.912 0.432 2.448-4.944-12.336h3.888l3.768 9.432-2.352 0.024 7.608-9.456h4.008l-9.84 12.36 1.32-2.472-1.368 6.912h-3.888zM104.395 24.288c-1.296 0-2.504-0.208-3.624-0.624-1.104-0.432-2.064-1.040-2.88-1.824s-1.456-1.704-1.92-2.76c-0.448-1.056-0.672-2.216-0.672-3.48s0.224-2.424 0.672-3.48c0.464-1.056 1.104-1.976 1.92-2.76 0.832-0.784 1.8-1.384 2.904-1.8 1.104-0.432 2.312-0.648 3.624-0.648 1.456 0 2.768 0.256 3.936 0.768 1.184 0.496 2.176 1.232 2.976 2.208l-2.496 2.304c-0.576-0.656-1.216-1.144-1.92-1.464-0.704-0.336-1.472-0.504-2.304-0.504-0.784 0-1.504 0.128-2.16 0.384s-1.224 0.624-1.704 1.104c-0.48 0.48-0.856 1.048-1.128 1.704-0.256 0.656-0.384 1.384-0.384 2.184s0.128 1.528 0.384 2.184c0.272 0.656 0.648 1.224 1.128 1.704s1.048 0.848 1.704 1.104c0.656 0.256 1.376 0.384 2.16 0.384 0.832 0 1.6-0.16 2.304-0.48 0.704-0.336 1.344-0.84 1.92-1.512l2.496 2.304c-0.8 0.976-1.792 1.72-2.976 2.232-1.168 0.512-2.488 0.768-3.96 0.768zM124.757 7.2h3.888v16.8h-3.888v-16.8zM117.125 24h-3.888v-16.8h3.888v16.8zM125.045 17.112h-8.208v-3.288h8.208v3.288zM140.059 24.288c-1.328 0-2.56-0.216-3.696-0.648-1.12-0.432-2.096-1.040-2.928-1.824-0.815-0.784-1.455-1.704-1.919-2.76-0.448-1.056-0.672-2.208-0.672-3.456s0.224-2.4 0.672-3.456c0.464-1.056 1.112-1.976 1.943-2.76s1.808-1.392 2.928-1.824 2.336-0.648 3.648-0.648c1.328 0 2.544 0.216 3.648 0.648 1.12 0.432 2.088 1.040 2.904 1.824 0.832 0.784 1.48 1.704 1.944 2.76 0.464 1.040 0.696 2.192 0.696 3.456 0 1.248-0.232 2.408-0.696 3.48-0.464 1.056-1.112 1.976-1.944 2.76-0.816 0.768-1.784 1.368-2.904 1.8-1.104 0.432-2.312 0.648-3.624 0.648zM140.035 20.976c0.752 0 1.44-0.128 2.064-0.384 0.64-0.256 1.2-0.624 1.68-1.104s0.848-1.048 1.104-1.704c0.272-0.656 0.408-1.384 0.408-2.184s-0.136-1.528-0.408-2.184c-0.256-0.656-0.624-1.224-1.104-1.704-0.464-0.48-1.016-0.848-1.656-1.104s-1.336-0.384-2.088-0.384c-0.752 0-1.448 0.128-2.088 0.384-0.624 0.256-1.176 0.624-1.656 1.104s-0.856 1.048-1.128 1.704c-0.256 0.656-0.384 1.384-0.384 2.184 0 0.784 0.128 1.512 0.384 2.184 0.272 0.656 0.64 1.224 1.104 1.704 0.48 0.48 1.040 0.848 1.68 1.104s1.336 0.384 2.088 0.384zM159.469 24.288c-1.296 0-2.504-0.208-3.624-0.624-1.104-0.432-2.064-1.040-2.88-1.824s-1.456-1.704-1.92-2.76c-0.448-1.056-0.672-2.216-0.672-3.48s0.224-2.424 0.672-3.48c0.464-1.056 1.104-1.976 1.92-2.76 0.832-0.784 1.8-1.384 2.904-1.8 1.104-0.432 2.312-0.648 3.624-0.648 1.456 0 2.768 0.256 3.936 0.768 1.184 0.496 2.176 1.232 2.976 2.208l-2.496 2.304c-0.576-0.656-1.216-1.144-1.92-1.464-0.704-0.336-1.472-0.504-2.304-0.504-0.784 0-1.504 0.128-2.16 0.384s-1.224 0.624-1.704 1.104c-0.48 0.48-0.856 1.048-1.128 1.704-0.256 0.656-0.384 1.384-0.384 2.184s0.128 1.528 0.384 2.184c0.272 0.656 0.648 1.224 1.128 1.704s1.048 0.848 1.704 1.104c0.656 0.256 1.376 0.384 2.16 0.384 0.832 0 1.6-0.16 2.304-0.48 0.704-0.336 1.344-0.84 1.92-1.512l2.496 2.304c-0.8 0.976-1.792 1.72-2.976 2.232-1.168 0.512-2.488 0.768-3.96 0.768zM176.119 24.288c-1.328 0-2.56-0.216-3.696-0.648-1.12-0.432-2.096-1.040-2.928-1.824-0.816-0.784-1.456-1.704-1.92-2.76-0.448-1.056-0.672-2.208-0.672-3.456s0.224-2.4 0.672-3.456c0.464-1.056 1.112-1.976 1.944-2.76s1.808-1.392 2.928-1.824c1.12-0.432 2.336-0.648 3.648-0.648 1.328 0 2.544 0.216 3.648 0.648 1.12 0.432 2.088 1.040 2.904 1.824 0.832 0.784 1.48 1.704 1.944 2.76 0.464 1.040 0.696 2.192 0.696 3.456 0 1.248-0.232 2.408-0.696 3.48-0.464 1.056-1.112 1.976-1.944 2.76-0.816 0.768-1.784 1.368-2.904 1.8-1.104 0.432-2.312 0.648-3.624 0.648zM176.095 20.976c0.752 0 1.44-0.128 2.064-0.384 0.64-0.256 1.2-0.624 1.68-1.104s0.848-1.048 1.104-1.704c0.272-0.656 0.408-1.384 0.408-2.184s-0.136-1.528-0.408-2.184c-0.256-0.656-0.624-1.224-1.104-1.704-0.464-0.48-1.016-0.848-1.656-1.104s-1.336-0.384-2.088-0.384c-0.752 0-1.448 0.128-2.088 0.384-0.624 0.256-1.176 0.624-1.656 1.104s-0.856 1.048-1.128 1.704c-0.256 0.656-0.384 1.384-0.384 2.184 0 0.784 0.128 1.512 0.384 2.184 0.272 0.656 0.64 1.224 1.104 1.704 0.48 0.48 1.040 0.848 1.68 1.104s1.336 0.384 2.088 0.384zM187.489 24v-16.8h3.888v13.632h8.424v3.168h-12.312zM199.14 24l7.488-16.8h3.84l7.512 16.8h-4.080l-6.144-14.832h1.536l-6.168 14.832h-3.984zM202.884 20.4l1.032-2.952h8.64l1.056 2.952h-10.728zM221.639 24v-13.632h-5.376v-3.168h14.64v3.168h-5.376v13.632h-3.888zM235.851 13.968h8.088v3.024h-8.088v-3.024zM236.139 20.88h9.144v3.12h-13.008v-16.8h12.696v3.12h-8.832v10.56z"></path>
            <path fill="#fcf1e0" style="fill: var(--color2, #fcf1e0)" d="M256.136 20.076l10.777-17.424 0.639-0.674 8.236 5.491 0.057 3.314 2.009 3.28-8.88 14.077-12.839-8.063z"></path>
            <path fill="none" stroke="#fd9222" style="stroke: var(--color3, #fd9222)" stroke-linejoin="round" stroke-linecap="round" stroke-miterlimit="4" stroke-width="2.6667" d="M273.827 23.879l-14.185-8.864M263.553 8.599l14.185 8.864M262.821 25.864l11.736-19.25M279.368 14.789c-3.040-1.899-4.233-3.384-2.277-6.592l-9.625-6.015-11.736 19.25 14.185 8.864 9.453-15.507z"></path>
        </symbol>
        <symbol id="logo-mob" viewBox="0 0 259 32">
            <path fill="#111" style="fill: var(--color1, #111)" d="M5.995 23.875c-0.811 0-1.6-0.078-2.368-0.235-0.754-0.142-1.444-0.341-2.069-0.597-0.612-0.256-1.131-0.533-1.557-0.832l1.408-2.667c0.469 0.327 0.967 0.611 1.493 0.853 0.54 0.227 1.102 0.405 1.685 0.533 0.583 0.114 1.166 0.171 1.749 0.171 0.64 0 1.188-0.071 1.643-0.213 0.469-0.142 0.825-0.341 1.067-0.597 0.256-0.256 0.384-0.569 0.384-0.939 0-0.341-0.135-0.619-0.405-0.832s-0.626-0.391-1.067-0.533c-0.427-0.157-0.903-0.306-1.429-0.448s-1.060-0.306-1.6-0.491c-0.526-0.199-1.010-0.441-1.451-0.725-0.427-0.299-0.775-0.675-1.045-1.131s-0.405-1.024-0.405-1.707c0-1.024 0.277-1.913 0.832-2.667 0.569-0.754 1.365-1.337 2.389-1.749 1.024-0.427 2.226-0.64 3.605-0.64 1.010 0 1.963 0.114 2.859 0.341 0.896 0.213 1.664 0.526 2.304 0.939l-1.301 2.645c-0.569-0.384-1.202-0.668-1.899-0.853-0.697-0.199-1.415-0.299-2.155-0.299-0.668 0-1.244 0.078-1.728 0.235-0.469 0.156-0.832 0.377-1.088 0.661-0.242 0.27-0.363 0.583-0.363 0.939s0.128 0.647 0.384 0.875c0.27 0.213 0.626 0.398 1.067 0.555 0.441 0.142 0.924 0.284 1.451 0.427s1.052 0.306 1.579 0.491c0.526 0.185 1.010 0.419 1.451 0.704s0.796 0.647 1.067 1.088c0.27 0.427 0.405 0.967 0.405 1.621 0 1.024-0.284 1.92-0.853 2.688-0.569 0.754-1.372 1.344-2.411 1.771-1.024 0.413-2.233 0.619-3.627 0.619zM13.754 23.619l2.987-14.933h3.477l-2.987 14.933h-3.477zM20.114 23.619l2.987-14.933h2.816l4.245 10.581-1.493-0.021 8.277-10.56h2.965l-2.965 14.933h-3.243l1.984-10.005h0.661l-6.592 8.427h-1.536l-3.52-8.448 0.64 0.064-1.984 9.963h-3.243zM39.849 23.619l2.987-14.933h6.037c1.863 0 3.3 0.412 4.309 1.237 1.024 0.811 1.536 1.948 1.536 3.413 0 1.252-0.292 2.347-0.875 3.285-0.583 0.924-1.422 1.636-2.517 2.133-1.081 0.498-2.368 0.747-3.861 0.747h-4.843l1.835-1.579-1.131 5.696h-3.477zM44.371 18.328l-1.216-1.643h4.459c1.138 0 2.020-0.256 2.645-0.768 0.64-0.526 0.96-1.287 0.96-2.283 0-0.725-0.242-1.259-0.725-1.6-0.484-0.356-1.166-0.533-2.048-0.533h-4.203l1.835-1.685-1.707 8.512zM54.625 23.619l2.987-14.933h3.477l-2.432 12.117h7.488l-0.576 2.816h-10.944zM69.031 23.619l1.216-6.144 0.384 2.176-4.395-10.965h3.456l3.349 8.384-2.091 0.021 6.763-8.405h3.563l-8.747 10.987 1.173-2.197-1.216 6.144h-3.456zM92.795 23.875c-1.152 0-2.226-0.185-3.221-0.555-0.981-0.384-1.835-0.924-2.56-1.621s-1.294-1.515-1.707-2.453c-0.398-0.939-0.597-1.97-0.597-3.093s0.199-2.155 0.597-3.093c0.412-0.939 0.981-1.756 1.707-2.453 0.74-0.697 1.6-1.23 2.581-1.6 0.981-0.384 2.055-0.576 3.221-0.576 1.294 0 2.46 0.228 3.499 0.683 1.052 0.441 1.934 1.095 2.645 1.963l-2.219 2.048c-0.512-0.583-1.081-1.017-1.707-1.301-0.626-0.299-1.308-0.448-2.048-0.448-0.697 0-1.337 0.114-1.92 0.341s-1.088 0.555-1.515 0.981-0.761 0.932-1.003 1.515c-0.228 0.583-0.341 1.23-0.341 1.941s0.114 1.358 0.341 1.941c0.242 0.583 0.576 1.088 1.003 1.515s0.932 0.754 1.515 0.981c0.583 0.227 1.223 0.341 1.92 0.341 0.74 0 1.422-0.142 2.048-0.427 0.626-0.299 1.195-0.747 1.707-1.344l2.219 2.048c-0.711 0.867-1.593 1.529-2.645 1.984-1.038 0.455-2.212 0.683-3.52 0.683zM110.895 8.686h3.456v14.933h-3.456v-14.933zM104.111 23.619h-3.456v-14.933h3.456v14.933zM111.151 17.496h-7.296v-2.923h7.296v2.923zM124.497 23.875c-1.18 0-2.276-0.192-3.285-0.576-0.996-0.384-1.863-0.924-2.603-1.621-0.725-0.697-1.294-1.515-1.707-2.453-0.398-0.939-0.597-1.963-0.597-3.072s0.199-2.133 0.597-3.072c0.412-0.939 0.988-1.756 1.728-2.453s1.607-1.237 2.603-1.621c0.996-0.384 2.076-0.576 3.243-0.576 1.18 0 2.261 0.192 3.243 0.576 0.996 0.384 1.856 0.924 2.581 1.621 0.739 0.697 1.315 1.515 1.728 2.453 0.412 0.924 0.619 1.948 0.619 3.072 0 1.109-0.206 2.14-0.619 3.093-0.412 0.939-0.988 1.756-1.728 2.453-0.725 0.683-1.586 1.216-2.581 1.6-0.981 0.384-2.055 0.576-3.221 0.576zM124.476 20.931c0.668 0 1.28-0.114 1.835-0.341 0.569-0.227 1.067-0.555 1.493-0.981s0.754-0.931 0.981-1.515c0.242-0.583 0.363-1.23 0.363-1.941s-0.121-1.358-0.363-1.941c-0.228-0.583-0.555-1.088-0.981-1.515-0.412-0.427-0.903-0.754-1.472-0.981s-1.188-0.341-1.856-0.341c-0.668 0-1.287 0.114-1.856 0.341-0.555 0.228-1.045 0.555-1.472 0.981s-0.761 0.932-1.003 1.515c-0.228 0.583-0.341 1.23-0.341 1.941 0 0.697 0.114 1.344 0.341 1.941 0.242 0.583 0.569 1.088 0.981 1.515 0.427 0.427 0.924 0.754 1.493 0.981s1.188 0.341 1.856 0.341zM141.751 23.875c-1.152 0-2.226-0.185-3.221-0.555-0.981-0.384-1.835-0.924-2.56-1.621s-1.294-1.515-1.707-2.453c-0.398-0.939-0.597-1.97-0.597-3.093s0.199-2.155 0.597-3.093c0.412-0.939 0.981-1.756 1.707-2.453 0.739-0.697 1.6-1.23 2.581-1.6 0.981-0.384 2.055-0.576 3.221-0.576 1.294 0 2.46 0.228 3.499 0.683 1.052 0.441 1.934 1.095 2.645 1.963l-2.219 2.048c-0.512-0.583-1.081-1.017-1.707-1.301-0.626-0.299-1.309-0.448-2.048-0.448-0.697 0-1.337 0.114-1.92 0.341s-1.088 0.555-1.515 0.981-0.761 0.932-1.003 1.515c-0.228 0.583-0.341 1.23-0.341 1.941s0.114 1.358 0.341 1.941c0.242 0.583 0.576 1.088 1.003 1.515s0.931 0.754 1.515 0.981c0.583 0.227 1.223 0.341 1.92 0.341 0.739 0 1.422-0.142 2.048-0.427 0.626-0.299 1.195-0.747 1.707-1.344l2.219 2.048c-0.711 0.867-1.593 1.529-2.645 1.984-1.038 0.455-2.212 0.683-3.52 0.683zM156.55 23.875c-1.179 0-2.275-0.192-3.285-0.576-0.995-0.384-1.863-0.924-2.602-1.621-0.725-0.697-1.294-1.515-1.707-2.453-0.398-0.939-0.597-1.963-0.597-3.072s0.199-2.133 0.597-3.072c0.412-0.939 0.988-1.756 1.728-2.453s1.607-1.237 2.602-1.621c0.997-0.384 2.077-0.576 3.243-0.576 1.181 0 2.261 0.192 3.243 0.576 0.997 0.384 1.856 0.924 2.581 1.621 0.741 0.697 1.317 1.515 1.728 2.453 0.413 0.924 0.619 1.948 0.619 3.072 0 1.109-0.206 2.14-0.619 3.093-0.411 0.939-0.987 1.756-1.728 2.453-0.725 0.683-1.585 1.216-2.581 1.6-0.981 0.384-2.054 0.576-3.221 0.576zM156.529 20.931c0.669 0 1.28-0.114 1.835-0.341 0.57-0.227 1.067-0.555 1.493-0.981s0.754-0.931 0.981-1.515c0.242-0.583 0.363-1.23 0.363-1.941s-0.12-1.358-0.363-1.941c-0.227-0.583-0.555-1.088-0.981-1.515-0.411-0.427-0.902-0.754-1.472-0.981-0.568-0.228-1.187-0.341-1.856-0.341-0.667 0-1.286 0.114-1.856 0.341-0.555 0.228-1.045 0.555-1.472 0.981s-0.76 0.932-1.002 1.515c-0.228 0.583-0.341 1.23-0.341 1.941 0 0.697 0.114 1.344 0.341 1.941 0.242 0.583 0.569 1.088 0.981 1.515 0.427 0.427 0.925 0.754 1.493 0.981 0.57 0.227 1.189 0.341 1.856 0.341zM166.658 23.619v-14.933h3.456v12.117h7.488v2.816h-10.944zM177.013 23.619l6.656-14.933h3.413l6.677 14.933h-3.627l-5.461-13.184h1.365l-5.483 13.184h-3.541zM180.341 20.419l0.917-2.624h7.68l0.939 2.624h-9.536zM197.012 23.619v-12.117h-4.779v-2.816h13.013v2.816h-4.779v12.117h-3.456zM209.646 14.702h7.189v2.688h-7.189v-2.688zM209.902 20.846h8.128v2.773h-11.563v-14.933h11.285v2.773h-7.851v9.387z"></path>
            <path fill="#fcf1e0" style="fill: var(--color2, #fcf1e0)" d="M229.638 20.075l10.776-17.424 0.64-0.674 8.236 5.491 0.056 3.314 2.010 3.28-8.879 14.076-12.84-8.063z"></path>
            <path fill="none" stroke="#fd9222" style="stroke: var(--color3, #fd9222)" stroke-linejoin="round" stroke-linecap="round" stroke-miterlimit="4" stroke-width="2.7429" d="M247.33 23.879l-14.187-8.864M237.056 8.598l14.185 8.864M236.325 25.864l11.735-19.25M252.87 14.789c-3.038-1.899-4.233-3.384-2.277-6.592l-9.626-6.015-11.736 19.25 14.185 8.864 9.454-15.507z"></path>
        </symbol>
        <symbol id="icon-menu" viewBox="0 0 32 32">
            <path stroke-linejoin="round" stroke-linecap="round" stroke-miterlimit="4" stroke-width="2.2857" d="M4 16h24M4 8h24M4 24h24"></path>
            <symbol id="icon-facebook" viewBox="0 0 32 32">
                <path d="M19.52 4.64c0.24 0 0.48 0 0.96 0v3.6c-0.24 0-0.72 0-1.2 0s-0.96 0-1.2 0.24c-0.24 0.24-0.24 0.48-0.24 1.040 0 0.48 0 0.8 0 1.28h2.64v3.040h-2.64v13.2h-4.080v-13.28h-2.16v-3.040h2.16v-1.040c0-1.76 0.24-3.040 0.72-3.6 0.72-1.040 2.16-1.52 4.32-1.52 0.24 0.080 0.48 0.080 0.72 0.080z"></path>
            </symbol>
            <symbol id="icon-instagram" viewBox="0 0 32 32">
                <path d="M28.718 10.756c-0.016-1.074-0.215-2.14-0.596-3.145-0.667-1.716-2.024-3.073-3.743-3.737-0.994-0.373-2.044-0.573-3.108-0.596-1.367-0.061-1.801-0.078-5.273-0.078s-3.916 0-5.274 0.078c-1.062 0.023-2.112 0.223-3.106 0.596-1.719 0.664-3.078 2.021-3.743 3.737-0.374 0.992-0.576 2.041-0.596 3.101-0.061 1.367-0.080 1.8-0.080 5.265s0 3.909 0.080 5.265c0.021 1.062 0.222 2.109 0.596 3.104 0.667 1.714 2.024 3.071 3.744 3.735 0.989 0.386 2.040 0.605 3.106 0.639 1.369 0.061 1.803 0.079 5.274 0.079s3.917 0 5.274-0.079c1.062-0.021 2.112-0.221 3.108-0.595 1.719-0.666 3.076-2.022 3.743-3.737 0.374-0.993 0.574-2.041 0.596-3.104 0.061-1.365 0.080-1.798 0.080-5.265-0.003-3.466-0.003-3.906-0.082-5.264zM15.99 22.531c-3.631 0-6.572-2.936-6.572-6.561s2.941-6.561 6.572-6.561c3.628 0 6.572 2.936 6.572 6.561s-2.944 6.561-6.572 6.561zM22.824 10.696c-0.849 0-1.532-0.684-1.532-1.53s0.684-1.53 1.532-1.53c0.846 0 1.531 0.684 1.531 1.53s-0.685 1.53-1.531 1.53z"></path>
                <path d="M15.992 19.976c2.211 0 4.004-1.793 4.004-4.004s-1.793-4.004-4.004-4.004c-2.211 0-4.004 1.793-4.004 4.004s1.793 4.004 4.004 4.004z"></path>
            </symbol>
            <symbol id="icon-twitter" viewBox="0 0 32 32">
                <path d="M29.333 7.898c-0.992 0.435-2.048 0.723-3.15 0.863 1.133-0.677 1.998-1.74 2.405-3.022-1.057 0.63-2.223 1.075-3.467 1.323-1.003-1.068-2.433-1.73-3.993-1.73-3.027 0-5.463 2.457-5.463 5.468 0 0.433 0.037 0.85 0.127 1.247-4.545-0.222-8.567-2.4-11.268-5.718-0.472 0.818-0.748 1.755-0.748 2.763 0 1.893 0.975 3.572 2.428 4.543-0.878-0.017-1.74-0.272-2.47-0.673 0 0.017 0 0.038 0 0.060 0 2.657 1.895 4.863 4.38 5.372-0.445 0.122-0.93 0.18-1.433 0.18-0.35 0-0.703-0.020-1.035-0.093 0.708 2.165 2.718 3.757 5.108 3.808-1.86 1.455-4.222 2.332-6.778 2.332-0.448 0-0.878-0.020-1.308-0.075 2.422 1.562 5.292 2.453 8.387 2.453 10.060 0 15.56-8.333 15.56-15.557 0-0.242-0.008-0.475-0.020-0.707 1.085-0.77 1.997-1.732 2.74-2.838z"></path>
            </symbol>
            <symbol id="arrow-down" viewBox="0 0 32 32">
                <path d="M16.947 17.867c-0.124 0.125-0.271 0.224-0.434 0.292s-0.337 0.103-0.513 0.103-0.35-0.035-0.513-0.103c-0.162-0.068-0.31-0.167-0.434-0.292l-6.107-6.12c-0.124-0.125-0.271-0.224-0.434-0.292s-0.337-0.103-0.513-0.103c-0.176 0-0.35 0.035-0.513 0.103s-0.31 0.167-0.434 0.292c-0.248 0.25-0.388 0.588-0.388 0.94s0.139 0.69 0.388 0.94l6.12 6.12c0.75 0.749 1.767 1.17 2.827 1.17s2.077-0.421 2.827-1.17l6.12-6.12c0.246-0.248 0.385-0.584 0.387-0.933 0.001-0.175-0.033-0.349-0.099-0.512s-0.164-0.31-0.288-0.435c-0.124-0.125-0.271-0.224-0.434-0.292s-0.337-0.103-0.513-0.103-0.35 0.035-0.513 0.103c-0.162 0.068-0.31 0.167-0.434 0.292l-6.107 6.12z"></path>
            </symbol>
            <symbol id="arrow-down-mob" viewBox="0 0 32 32">
                <path d="M16.947 17.867c-0.124 0.125-0.271 0.224-0.434 0.292s-0.337 0.103-0.513 0.103c-0.176 0-0.35-0.035-0.513-0.103s-0.31-0.167-0.434-0.292l-6.107-6.12c-0.124-0.125-0.271-0.224-0.434-0.292s-0.337-0.103-0.513-0.103c-0.176 0-0.35 0.035-0.513 0.103s-0.31 0.167-0.434 0.292c-0.248 0.25-0.388 0.588-0.388 0.94s0.139 0.69 0.388 0.94l6.12 6.12c0.75 0.749 1.767 1.17 2.827 1.17s2.077-0.421 2.827-1.17l6.12-6.12c0.246-0.248 0.385-0.584 0.387-0.933 0.001-0.175-0.033-0.349-0.099-0.512s-0.164-0.31-0.288-0.435c-0.124-0.125-0.271-0.224-0.434-0.292s-0.337-0.103-0.513-0.103c-0.176 0-0.35 0.035-0.513 0.103s-0.31 0.167-0.434 0.292l-6.107 6.12z"></path>
            </symbol>
            <symbol id="icon-chocolate" viewBox="0 0 32 32">
                <path d="M13.822 2.413l7.527 7.536 0.080-0.080c0.158-0.154 0.369-0.242 0.589-0.244s0.434 0.080 0.595 0.231l0.873 0.873c0.305 0.305 0.315 0.77 0.083 1.094l-0.004 0.007-0.143 0.192 6.16 6.16c0.55 0.55 0.55 1.43 0 1.98l-9.43 9.43c-0.55 0.55-1.43 0.55-1.98 0l-4.447-4.447c-0.074 0.093-0.167 0.169-0.272 0.224s-0.221 0.086-0.34 0.093c-0.119 0.007-0.237-0.012-0.348-0.054s-0.212-0.108-0.296-0.192l-2.6-2.6c-0.154-0.158-0.242-0.369-0.244-0.589s0.080-0.434 0.231-0.595l0.006-0.007 0.077-0.076-7.527-7.527c-0.55-0.55-0.55-1.43 0-1.98l9.43-9.43c0.55-0.55 1.43-0.55 1.98 0v0.001zM20.404 10.893l-1.756-1.755c-0.055-0.057-0.121-0.102-0.194-0.133s-0.151-0.047-0.231-0.047c-0.079 0-0.158 0.016-0.231 0.047s-0.139 0.076-0.194 0.133l-3.58 3.58c-0.057 0.056-0.102 0.123-0.132 0.197s-0.047 0.153-0.047 0.233 0.016 0.159 0.047 0.233c0.031 0.074 0.076 0.141 0.132 0.197l1.749 1.749 0.61-0.61-1.565-1.565 3.21-3.22 1.569 1.574 0.613-0.613zM15.328 15.965l-1.754-1.754c-0.055-0.057-0.121-0.102-0.194-0.133s-0.152-0.047-0.231-0.047c-0.079 0-0.158 0.016-0.231 0.047s-0.139 0.076-0.194 0.133l-3.59 3.59c-0.24 0.23-0.24 0.61 0 0.85l1.752 1.752 0.616-0.616-1.57-1.564 3.22-3.21 1.564 1.563 0.612-0.611zM8.822 8.193l3.58 3.58c0.24 0.24 0.62 0.24 0.85-0.010l3.58-3.58c0.057-0.054 0.102-0.119 0.133-0.192s0.047-0.15 0.047-0.228h0.010c0-0.15-0.060-0.31-0.18-0.43l-3.58-3.58c-0.056-0.057-0.123-0.102-0.197-0.133s-0.153-0.047-0.233-0.047c-0.080 0-0.159 0.016-0.233 0.047s-0.141 0.076-0.197 0.133l-3.58 3.59c-0.24 0.23-0.24 0.61 0 0.85zM3.752 13.263l3.58 3.58c0.24 0.24 0.62 0.24 0.85 0l3.58-3.58c0.058-0.055 0.104-0.122 0.135-0.196s0.046-0.154 0.045-0.234h0.010c0-0.16-0.060-0.31-0.18-0.43l-3.58-3.58c-0.055-0.057-0.121-0.102-0.194-0.133s-0.151-0.047-0.231-0.047c-0.079 0-0.158 0.016-0.231 0.047s-0.139 0.076-0.194 0.133l-3.59 3.59c-0.24 0.23-0.24 0.61 0 0.85zM10.685 22.017l2.362 2.363 9.636-13.040-0.655-0.655-11.343 11.332z"></path>
                <path d="M13.822 2.413l7.527 7.536 0.080-0.080c0.158-0.154 0.369-0.242 0.589-0.244s0.434 0.080 0.595 0.231l0.873 0.873c0.305 0.305 0.315 0.77 0.083 1.094l-0.004 0.007-0.143 0.192 6.16 6.16c0.55 0.55 0.55 1.43 0 1.98l-9.43 9.43c-0.55 0.55-1.43 0.55-1.98 0l-4.447-4.447c-0.074 0.093-0.167 0.169-0.272 0.224s-0.221 0.086-0.34 0.093c-0.119 0.007-0.237-0.012-0.348-0.054s-0.212-0.108-0.296-0.192l-2.6-2.6c-0.154-0.158-0.242-0.369-0.244-0.589s0.080-0.434 0.231-0.595l0.006-0.007 0.077-0.076-7.527-7.527c-0.55-0.55-0.55-1.43 0-1.98l9.43-9.43c0.55-0.55 1.43-0.55 1.98 0v0.001zM20.404 10.893l-1.756-1.755c-0.055-0.057-0.121-0.102-0.194-0.133s-0.151-0.047-0.231-0.047c-0.079 0-0.158 0.016-0.231 0.047s-0.139 0.076-0.194 0.133l-3.58 3.58c-0.057 0.056-0.102 0.123-0.132 0.197s-0.047 0.153-0.047 0.233 0.016 0.159 0.047 0.233c0.031 0.074 0.076 0.141 0.132 0.197l1.749 1.749 0.61-0.61-1.565-1.565 3.21-3.22 1.569 1.574 0.613-0.613zM15.328 15.965l-1.754-1.754c-0.055-0.057-0.121-0.102-0.194-0.133s-0.152-0.047-0.231-0.047c-0.079 0-0.158 0.016-0.231 0.047s-0.139 0.076-0.194 0.133l-3.59 3.59c-0.24 0.23-0.24 0.61 0 0.85l1.752 1.752 0.616-0.616-1.57-1.564 3.22-3.21 1.564 1.563 0.612-0.611zM8.822 8.193l3.58 3.58c0.24 0.24 0.62 0.24 0.85-0.010l3.58-3.58c0.057-0.054 0.102-0.119 0.133-0.192s0.047-0.15 0.047-0.228h0.010c0-0.15-0.060-0.31-0.18-0.43l-3.58-3.58c-0.056-0.057-0.123-0.102-0.197-0.133s-0.153-0.047-0.233-0.047c-0.080 0-0.159 0.016-0.233 0.047s-0.141 0.076-0.197 0.133l-3.58 3.59c-0.24 0.23-0.24 0.61 0 0.85zM3.752 13.263l3.58 3.58c0.24 0.24 0.62 0.24 0.85 0l3.58-3.58c0.058-0.055 0.104-0.122 0.135-0.196s0.046-0.154 0.045-0.234h0.010c0-0.16-0.060-0.31-0.18-0.43l-3.58-3.58c-0.055-0.057-0.121-0.102-0.194-0.133s-0.151-0.047-0.231-0.047c-0.079 0-0.158 0.016-0.231 0.047s-0.139 0.076-0.194 0.133l-3.59 3.59c-0.24 0.23-0.24 0.61 0 0.85zM10.685 22.017l2.362 2.363 9.636-13.040-0.655-0.655-11.343 11.332z"></path>
            </symbol>
            <symbol id="icon-coin" viewBox="0 0 32 32">
                <path d="M16 2.667c-7.333 0-13.333 6-13.333 13.333s6 13.333 13.333 13.333c7.333 0 13.333-6 13.333-13.333s-6-13.333-13.333-13.333zM16 26.667c-5.867 0-10.667-4.8-10.667-10.667s4.8-10.667 10.667-10.667 10.667 4.8 10.667 10.667c0 5.867-4.8 10.667-10.667 10.667z"></path>
                <path d="M17.733 14.667h-3.467c-0.667 0-1.2-0.533-1.2-1.2s0.533-1.2 1.2-1.2h4.933c0.8 0 1.333-0.533 1.333-1.333s-0.533-1.333-1.333-1.333h-1.867v-1.2c0-0.8-0.533-1.333-1.333-1.333s-1.333 0.533-1.333 1.333v1.2h-0.4c-2.133 0-3.867 1.733-3.867 3.867s1.733 3.867 3.867 3.867h3.333c0.667 0 1.2 0.533 1.2 1.2s-0.533 1.2-1.2 1.2h-4.933c-0.8 0-1.333 0.533-1.333 1.333s0.533 1.333 1.333 1.333h2v1.2c0 0.8 0.533 1.333 1.333 1.333s1.333-0.533 1.333-1.333v-1.2h0.4c2.133 0 3.867-1.733 3.867-3.867s-1.733-3.867-3.867-3.867z"></path>
            </symbol>
            <symbol id="icon-spoon" viewBox="0 0 32 32">
                <path d="M15.451 14.106c-0.783-0.95-1.177-2.116-1.177-3.282 0-4.324 5.181-8.642 10.362-8.642 2.86 0 5.181 2.321 5.181 5.182 0 5.182-4.318 10.364-8.646 10.364-1.166 0-2.331-0.394-3.281-1.177l-12.758 12.761c-0.675 0.675-1.77 0.675-2.445 0s-0.675-1.771 0-2.445l12.764-12.761z"></path>
            </symbol>
        </defs>
    </svg>